<svg width="16" height="16" viewBox="0 0 16 16" fill="none" xmlns="http://www.w3.org/2000/svg">
<path d="M12.0842 9.5127C10.9721 9.5127 10.0674 10.4174 10.0674 11.5295C10.0674 12.6416 10.9721 13.5463 12.0842 13.5463C13.1965 13.5463 14.101 12.6416 14.101 11.5295C14.101 10.4174 13.1963 9.5127 12.0842 9.5127ZM12.0842 12.5379C11.5281 12.5379 11.0758 12.0856 11.0758 11.5295C11.0758 10.9734 11.5281 10.5211 12.0842 10.5211C12.6403 10.5211 13.0926 10.9734 13.0926 11.5295C13.0926 12.0857 12.6403 12.5379 12.0842 12.5379Z" fill="#009E36"/>
<path d="M5.19357 9.5127C4.08148 9.5127 3.17676 10.4174 3.17676 11.5295C3.17676 12.6416 4.08148 13.5463 5.19357 13.5463C6.30566 13.5463 7.21038 12.6416 7.21038 11.5295C7.21038 10.4174 6.30566 9.5127 5.19357 9.5127ZM5.19357 12.5379C4.63744 12.5379 4.18516 12.0856 4.18516 11.5295C4.18516 10.9734 4.63744 10.5211 5.19357 10.5211C5.74954 10.5211 6.20198 10.9734 6.20198 11.5295C6.20198 12.0857 5.74969 12.5379 5.19357 12.5379Z" fill="#009E36"/>
<path d="M13.442 3.73981C13.3563 3.56956 13.182 3.46216 12.9914 3.46216H10.3359V4.47057H12.6805L14.0534 7.20132L14.9546 6.74819L13.442 3.73981Z" fill="#009E36"/>
<path d="M10.571 11.042H6.75586V12.0504H10.571V11.042Z" fill="#009E36"/>
<path d="M3.68077 11.042H1.9329C1.6544 11.042 1.42871 11.2677 1.42871 11.5462C1.42871 11.8247 1.65443 12.0504 1.9329 12.0504H3.6808C3.9593 12.0504 4.18499 11.8246 4.18499 11.5462C4.18499 11.2677 3.95927 11.042 3.68077 11.042Z" fill="#009E36"/>
<path d="M15.8942 7.95973L14.9025 6.68242C14.8072 6.55939 14.6602 6.48745 14.5043 6.48745H10.8405V2.95804C10.8405 2.67954 10.6147 2.45386 10.3363 2.45386H1.9329C1.6544 2.45386 1.42871 2.67958 1.42871 2.95804C1.42871 3.23651 1.65443 3.46223 1.9329 3.46223H9.83206V6.99164C9.83206 7.27014 10.0578 7.49583 10.3362 7.49583H14.2574L14.9917 8.4417V11.042H13.5967C13.3182 11.042 13.0926 11.2678 13.0926 11.5462C13.0926 11.8247 13.3183 12.0504 13.5967 12.0504H15.4959C15.7744 12.0504 16.0001 11.8247 16.0001 11.5462V8.26898C16.0001 8.15705 15.9628 8.04814 15.8942 7.95973Z" fill="#009E36"/>
<path d="M3.64677 8.4873H1.32743C1.04893 8.4873 0.823242 8.71302 0.823242 8.99149C0.823242 9.26999 1.04896 9.49568 1.32743 9.49568H3.64674C3.92524 9.49568 4.15093 9.26996 4.15093 8.99149C4.15096 8.71302 3.92524 8.4873 3.64677 8.4873Z" fill="#009E36"/>
<path d="M4.80672 6.50415H0.504188C0.225719 6.50415 0 6.72987 0 7.00837C0 7.28687 0.225719 7.51256 0.504188 7.51256H4.80672C5.08522 7.51256 5.31091 7.28684 5.31091 7.00837C5.31091 6.7299 5.08522 6.50415 4.80672 6.50415Z" fill="#009E36"/>
<path d="M5.62996 4.521H1.32743C1.04893 4.521 0.823242 4.74671 0.823242 5.02518C0.823242 5.30368 1.04896 5.52937 1.32743 5.52937H5.62996C5.90846 5.52937 6.13415 5.30365 6.13415 5.02518C6.13418 4.74671 5.90846 4.521 5.62996 4.521Z" fill="#009E36"/>
</svg>
